HIERARCHY
ROOT Hips
{
	OFFSET 0.00000 0.00000 0.00000
	CHANNELS 6 Xposition Yposition Zposition Zrotation Yrotation Xrotation 
	JOINT LHipJoint
	{
		OFFSET 0 0 0
		CHANNELS 3 Zrotation Yrotation Xrotation
		JOINT LeftUpLeg
		{
			OFFSET 1.23340 -1.80723 0.69510
			CHANNELS 3 Zrotation Yrotation Xrotation
			JOINT LeftLeg
			{
				OFFSET 2.50056 -6.87023 0.00000
				CHANNELS 3 Zrotation Yrotation Xrotation
				JOINT LeftFoot
				{
					OFFSET 2.85931 -7.85591 0.00000
					CHANNELS 3 Zrotation Yrotation Xrotation
					JOINT LeftToeBase
					{
						OFFSET 0.21001 -0.57700 2.07823
						CHANNELS 3 Zrotation Yrotation Xrotation
						End Site
						{
							OFFSET 0.00000 -0.00000 1.08338
						}
					}
				}
			}
		}
	}
	JOINT RHipJoint
	{
		OFFSET 0 0 0
		CHANNELS 3 Zrotation Yrotation Xrotation
		JOINT RightUpLeg
		{
			OFFSET -1.40842 -1.80723 0.69510
			CHANNELS 3 Zrotation Yrotation Xrotation
			JOINT RightLeg
			{
				OFFSET -2.54876 -7.00266 0.00000
				CHANNELS 3 Zrotation Yrotation Xrotation
				JOINT RightFoot
				{
					OFFSET -2.74835 -7.55104 0.00000
					CHANNELS 3 Zrotation Yrotation Xrotation
					JOINT RightToeBase
					{
						OFFSET -0.22633 -0.62184 2.00890
						CHANNELS 3 Zrotation Yrotation Xrotation
						End Site
						{
							OFFSET -0.00000 -0.00000 1.05493
						}
					}
				}
			}
		}
	}
	JOINT LowerBack
	{
		OFFSET 0 0 0
		CHANNELS 3 Zrotation Yrotation Xrotation
		JOINT Spine
		{
			OFFSET -0.02340 2.02740 -0.12728
			CHANNELS 3 Zrotation Yrotation Xrotation
			JOINT Spine1
			{
				OFFSET -0.00862 2.03614 -0.01188
				CHANNELS 3 Zrotation Yrotation Xrotation
				JOINT Neck
				{
					OFFSET 0 0 0
					CHANNELS 3 Zrotation Yrotation Xrotation
					JOINT Neck1
					{
						OFFSET 0.03380 1.76650 0.27670
						CHANNELS 3 Zrotation Yrotation Xrotation
						JOINT Head
						{
							OFFSET -0.01114 1.80516 -0.21451
							CHANNELS 3 Zrotation Yrotation Xrotation
							End Site
							{
								OFFSET -0.00766 1.81942 -0.10287
							}
						}
					}
				}
				JOINT LeftShoulder
				{
					OFFSET 0 0 0
					CHANNELS 3 Zrotation Yrotation Xrotation
					JOINT LeftArm
					{
						OFFSET 3.22358 1.39475 0.18630
						CHANNELS 3 Zrotation Yrotation Xrotation
						JOINT LeftForeArm
						{
							OFFSET 5.45077 -0.00000 0.00000
							CHANNELS 3 Zrotation Yrotation Xrotation
							JOINT LeftHand
							{
								OFFSET 3.05488 -0.00000 0.00000
								CHANNELS 3 Zrotation Yrotation Xrotation
								JOINT LeftFingerBase
								{
									OFFSET 0 0 0
									CHANNELS 3 Zrotation Yrotation Xrotation
									JOINT LeftHandIndex1
									{
										OFFSET 0.63882 -0.00000 0.00000
										CHANNELS 3 Zrotation Yrotation Xrotation
										End Site
										{
											OFFSET 0.51503 -0.00000 0.00000
										}
									}
								}
								JOINT LThumb
								{
									OFFSET 0 0 0
									CHANNELS 3 Zrotation Yrotation Xrotation
									End Site
									{
										OFFSET 0.52290 -0.00000 0.52290
									}
								}
							}
						}
					}
				}
				JOINT RightShoulder
				{
					OFFSET 0 0 0
					CHANNELS 3 Zrotation Yrotation Xrotation
					JOINT RightArm
					{
						OFFSET -3.57143 1.14055 0.30691
						CHANNELS 3 Zrotation Yrotation Xrotation
						JOINT RightForeArm
						{
							OFFSET -4.88702 -0.00000 -0.00000
							CHANNELS 3 Zrotation Yrotation Xrotation
							JOINT RightHand
							{
								OFFSET -3.22603 -0.00000 0.00000
								CHANNELS 3 Zrotation Yrotation Xrotation
								JOINT RightFingerBase
								{
									OFFSET 0 0 0
									CHANNELS 3 Zrotation Yrotation Xrotation
									JOINT RightHandIndex1
									{
										OFFSET -0.71629 -0.00000 0.00000
										CHANNELS 3 Zrotation Yrotation Xrotation
										End Site
										{
											OFFSET -0.57749 -0.00000 0.00000
										}
									}
								}
								JOINT RThumb
								{
									OFFSET 0 0 0
									CHANNELS 3 Zrotation Yrotation Xrotation
									End Site
									{
										OFFSET -0.58631 -0.00000 0.58631
									}
								}
							}
						}
					}
				}
			}
		}
	}
}
MOTION
Frames: 11
Frame Time: .0083333
-0.9417 14.7807 0.4614 173.7050 68.3767 216.9390 0.0000 0.0000 0.0000 -10.2654 -10.6539 -101.0684 16.2558 19.6605 78.9929 -1.4833 -26.0633 -7.0196 0.0123 0.7158 1.9670 0.0000 0.0000 0.0000 18.0419 -8.3389 -101.7410 -18.0715 -19.9106 84.3535 -0.2254 19.3533 -15.4746 -0.6663 5.2201 -14.5374 -5.8794 0.5487 35.8642 -4.1332 -0.4545 8.7454 -1.2108 0.4139 -8.1122 4.3468 6.1698 -21.3411 -13.2454 8.9372 6.2479 -3.9147 3.5265 6.1957 0.0000 0.0000 0.0000 -40.0985 -58.3205 8.4057 38.5789 -47.2050 -17.3891 -0.0000 0.0000 -77.7170 -2.6423 32.8374 -1.4335 -7.1250 0.0000 -0.0000 -38.7895 58.3358 -13.9964 0.0000 0.0000 0.0000 88.4575 84.9824 49.2457 -23.8828 35.0401 -7.6392 0.0000 -0.0000 -48.6783 -2.1295 3.6048 -0.1340 7.1250 -0.0000 -0.0000 18.3643 -26.2525 8.7779
-0.9585 14.8598 0.4509 173.9070 68.6199 216.9830 0.0000 0.0000 0.0000 -10.4324 -10.6082 -100.3072 15.9374 19.5996 78.0452 -1.4490 -25.8160 -6.9977 0.0101 0.6505 1.7876 0.0000 0.0000 0.0000 18.2697 -8.2170 -101.0174 -17.6706 -19.8694 83.1749 -0.2206 19.3275 -15.4203 -0.6917 5.3167 -14.8140 -5.7386 0.5181 35.4380 -4.1483 -0.4392 8.7076 -1.2980 0.4083 -8.0069 4.6290 6.2583 -21.3465 -13.3331 9.0116 6.4991 -3.9788 3.5480 6.3011 0.0000 0.0000 0.0000 -40.7318 -57.9548 9.5686 38.8515 -47.3745 -17.5894 -0.0000 0.0000 -77.5421 -2.6498 32.8316 -1.4374 -7.1250 0.0000 -0.0000 -38.7908 58.3295 -13.9910 0.0000 0.0000 0.0000 86.3566 84.0845 47.0340 -24.1834 35.3576 -7.8125 0.0000 -0.0000 -48.7186 -2.2205 3.8690 -0.1499 7.1250 -0.0000 -0.0000 18.2579 -26.0024 8.8352
-0.9755 14.9323 0.4437 174.0240 68.9359 216.9580 0.0000 0.0000 0.0000 -10.6503 -10.5105 -99.6103 15.6245 19.5347 77.1108 -1.4223 -25.6076 -6.9616 0.0077 0.5657 1.5544 0.0000 0.0000 0.0000 18.4111 -8.0341 -100.2930 -17.2698 -19.8203 81.9943 -0.1889 19.3287 -15.1675 -0.6422 5.1267 -14.2703 -5.7609 0.5100 34.9181 -4.1502 -0.4387 8.7492 -1.2472 0.3944 -7.8947 4.8322 6.3487 -21.5172 -13.4159 9.1249 6.9145 -4.0211 3.5730 6.4862 0.0000 -0.0000 0.0000 -41.2305 -57.3898 10.6357 39.3062 -47.6534 -17.9248 -0.0000 0.0000 -77.4821 -2.8703 32.3205 -1.5355 -7.1250 0.0000 -0.0000 -38.4990 57.8780 -13.4315 0.0000 -0.0000 0.0000 85.2966 83.1273 46.0897 -24.6308 35.8243 -8.0728 0.0000 -0.0000 -49.0943 -2.5600 3.7953 -0.1696 7.1250 -0.0000 -0.0000 18.0224 -26.0758 8.6768
-0.9909 15.0121 0.4338 174.3710 69.2338 217.0720 0.0000 0.0000 0.0000 -10.8165 -10.3335 -98.8134 15.3135 19.4651 76.1791 -1.4093 -25.4069 -6.7987 0.0106 0.6641 1.8250 0.0000 0.0000 0.0000 18.7016 -7.8931 -99.4553 -16.8510 -19.7606 80.7576 -0.1407 19.5127 -14.8971 -0.5555 4.7744 -13.2663 -5.7768 0.4931 34.5755 -4.0601 -0.4629 8.6782 -1.1284 0.3699 -7.8460 4.7829 6.3845 -21.6266 -13.3106 9.2095 7.3615 -3.9662 3.5916 6.6465 -0.0000 -0.0000 0.0000 -41.9200 -56.7163 11.4289 39.7111 -47.8978 -18.2246 -0.0000 0.0000 -77.6397 -3.0967 32.2219 -1.6523 -7.1250 0.0000 -0.0000 -38.6164 57.7509 -13.3585 -0.0000 -0.0000 0.0000 85.2093 82.1596 46.2058 -25.0526 36.2577 -8.3210 0.0000 -0.0000 -49.5849 -2.6920 3.7185 -0.1747 7.1250 -0.0000 -0.0000 17.9377 -26.1502 8.5989
-1.0045 15.0993 0.4226 174.3430 69.5903 216.7460 0.0000 0.0000 0.0000 -11.1108 -10.2308 -97.8378 14.9934 19.3881 75.2168 -1.3842 -25.1618 -6.6965 0.0134 0.7469 2.0527 0.0000 0.0000 0.0000 18.8499 -7.8758 -98.5291 -16.4259 -19.6909 79.4980 -0.0746 19.7458 -14.5143 -0.4656 4.3768 -12.1393 -5.9725 0.5023 34.3696 -3.9427 -0.5170 8.6018 -0.8787 0.3362 -7.8445 4.6282 6.4687 -21.6852 -13.1836 9.3769 7.7072 -3.8761 3.6559 6.7680 0.0000 -0.0000 0.0000 -42.8195 -56.0526 12.1144 39.8937 -48.0068 -18.3602 -0.0000 0.0000 -77.6055 -3.5438 32.2211 -1.8913 -7.1250 0.0000 -0.0000 -39.0330 57.6536 -13.4388 0.0000 -0.0000 0.0000 85.0884 81.1760 46.3313 -25.4737 36.6843 -8.5713 0.0000 -0.0000 -49.8488 -2.6364 3.6818 -0.1694 7.1250 -0.0000 -0.0000 17.9837 -26.1846 8.6078
-1.0157 15.1853 0.4140 174.3930 69.9866 216.4630 0.0000 0.0000 0.0000 -11.4080 -10.0276 -96.8525 14.6795 19.3073 74.2695 -1.3687 -24.9923 -6.6077 0.0149 0.7890 2.1684 0.0000 0.0000 0.0000 18.9771 -7.7471 -97.5530 -16.0066 -19.6133 78.2515 -0.0653 19.6719 -14.3879 -0.4944 4.5082 -12.5111 -6.3171 0.8013 34.1942 -3.6624 -0.2541 8.5098 -0.4947 0.4462 -7.8702 4.6621 6.4367 -21.5161 -13.3712 9.3781 7.9059 -3.9455 3.6392 6.8195 0.0000 -0.0000 0.0000 -44.3665 -55.8269 13.7322 40.0091 -48.0753 -18.4460 -0.0000 0.0000 -77.2241 -3.9832 31.7075 -2.0959 -7.1250 0.0000 -0.0000 -38.9546 57.1551 -12.9178 0.0000 -0.0000 0.0000 81.4868 80.1309 43.0739 -25.8558 37.0659 -8.8006 0.0000 -0.0000 -50.1306 -2.7002 3.7404 -0.1763 7.1250 -0.0000 -0.0000 17.9285 -26.1294 8.6033
-1.0277 15.2661 0.4067 174.5230 70.2595 216.3260 0.0000 0.0000 0.0000 -11.6553 -9.8679 -95.9973 14.3681 19.2219 73.3256 -1.3536 -24.8348 -6.5335 0.0096 0.6335 1.7409 0.0000 0.0000 0.0000 19.1606 -7.6452 -96.6646 -15.6042 -19.5303 77.0501 -0.0486 19.6024 -14.2016 -0.4710 4.4015 -12.2092 -6.3879 0.7459 33.8170 -3.5637 -0.3239 8.5001 -0.3206 0.4022 -7.7354 4.5427 6.5460 -21.5611 -13.3328 9.5750 8.1401 -3.8858 3.7180 6.9132 0.0000 0.0000 0.0000 -44.9782 -55.1688 14.5329 40.4333 -48.3245 -18.7622 -0.0000 0.0000 -77.1563 -3.3066 31.4441 -1.7264 -7.1250 0.0000 -0.0000 -38.0810 57.0894 -12.5026 0.0000 0.0000 0.0000 81.8055 79.2855 43.6220 -26.2072 37.4126 -9.0132 0.0000 -0.0000 -50.3485 -2.7372 3.7910 -0.1811 7.1250 -0.0000 -0.0000 17.8941 -26.0816 8.6063
-1.0407 15.3382 0.3933 174.4950 70.4774 216.1010 0.0000 0.0000 0.0000 -11.9037 -9.8574 -95.2213 14.0564 19.1311 72.3767 -1.3330 -24.5717 -6.3610 0.0109 0.6728 1.8490 0.0000 0.0000 0.0000 19.3317 -7.6514 -95.9161 -15.2135 -19.4416 75.8790 -0.0079 19.6241 -13.8762 -0.4523 4.3145 -11.9631 -5.9397 0.6075 33.3575 -3.8445 -0.3466 8.5240 -0.8349 0.3852 -7.5564 5.0680 6.5892 -21.6497 -13.3244 9.5075 8.4418 -3.9769 3.6829 7.0417 -0.0000 0.0000 0.0000 -45.2836 -54.8693 15.6421 40.7688 -48.5188 -19.0132 -0.0000 0.0000 -77.1714 -2.6106 32.1352 -1.3893 -7.1250 0.0000 -0.0000 -38.0781 57.7876 -13.1683 -0.0000 0.0000 0.0000 81.5660 78.3624 42.6038 -26.4855 37.6841 -9.1828 0.0000 -0.0000 -50.1882 -2.6387 3.8194 -0.1759 7.1250 -0.0000 -0.0000 17.9615 -26.0536 8.6544
-1.0519 15.4077 0.3768 174.5760 70.8104 215.9720 0.0000 0.0000 0.0000 -12.1098 -9.8060 -94.4221 13.7472 19.0356 71.4308 -1.3013 -24.2440 -6.2157 0.0158 0.8129 2.2341 0.0000 0.0000 0.0000 19.4867 -7.5811 -95.1646 -14.8241 -19.3452 74.7064 0.0210 19.6216 -13.6293 -0.4641 4.3697 -12.1191 -5.8908 0.5136 32.8936 -3.8428 -0.4317 8.5115 -0.8203 0.3336 -7.3945 5.0143 6.7183 -21.7428 -13.2526 9.7084 8.7035 -3.9150 3.7654 7.1539 -0.0000 -0.0000 0.0000 -45.7908 -54.3345 16.1846 40.7846 -48.5279 -19.0251 -0.0000 0.0000 -76.8365 -3.6187 31.3600 -1.8851 -7.1250 0.0000 -0.0000 -38.2939 56.9568 -12.4595 -0.0000 -0.0000 0.0000 82.2643 77.4369 43.1856 -26.8758 38.0605 -9.4225 0.0000 -0.0000 -50.1023 -2.5030 3.7010 -0.1617 7.1250 -0.0000 -0.0000 18.0780 -26.1650 8.6663
-1.0638 15.4866 0.3639 174.5250 71.1412 215.6610 0.0000 0.0000 0.0000 -12.4242 -9.7053 -93.5040 13.4368 18.9342 70.4769 -1.2616 -23.9483 -6.2110 0.0141 0.7668 2.1075 0.0000 0.0000 0.0000 19.5921 -7.5438 -94.3406 -14.4362 -19.2410 73.5322 0.0541 19.6045 -13.3329 -0.4279 4.1983 -11.6352 -5.8184 0.4308 32.1448 -3.8435 -0.4560 8.9284 -0.8687 0.2923 -7.3287 5.0978 6.8474 -21.8093 -13.2926 9.8938 8.9995 -3.9145 3.8353 7.2857 0.0000 -0.0000 0.0000 -46.3578 -53.8189 16.8911 40.9212 -48.6063 -19.1274 -0.0000 0.0000 -76.7497 -3.9712 31.1070 -2.0541 -7.1250 0.0000 -0.0000 -38.3897 56.6823 -12.2309 0.0000 -0.0000 0.0000 81.7161 76.5194 42.8972 -27.3603 38.5206 -9.7227 0.0000 -0.0000 -50.3487 -2.5591 3.7711 -0.1684 7.1250 -0.0000 -0.0000 18.0266 -26.0988 8.6687
-1.0755 15.5643 0.3534 174.6570 71.4623 215.5430 0.0000 0.0000 0.0000 -12.7801 -9.4577 -92.6848 13.1379 18.8314 69.5533 -1.2449 -23.7507 -6.1021 0.0121 0.7093 1.9491 0.0000 0.0000 0.0000 19.7334 -7.4437 -93.4716 -14.0429 -19.1270 72.3354 0.1054 19.6280 -12.9038 -0.3702 3.9081 -10.8182 -5.7609 0.3731 31.6970 -3.8652 -0.4961 8.9049 -0.9033 0.2633 -7.1513 5.1330 7.0071 -21.9014 -13.2127 10.1128 9.2997 -3.8609 3.9277 7.4161 0.0000 0.0000 0.0000 -46.8425 -53.2592 17.5145 41.1396 -48.7307 -19.2914 -0.0000 0.0000 -76.7896 -4.4809 31.4365 -2.3405 -7.1250 0.0000 -0.0000 -39.1629 56.8367 -12.6872 0.0000 0.0000 0.0000 81.5284 75.7451 42.9221 -27.7041 38.8424 -9.9376 0.0000 -0.0000 -50.6472 -2.6821 3.6073 -0.1689 7.1250 -0.0000 -0.0000 17.9616 -26.2560 8.5644
